# xmcd
#
# Track frame offsets:
#	150
#	14343
#	28903
#	43525
#	58558
#	75408
#	87035
#	101805
#	117525
#	134295
# Disc length: 1980 seconds
# Revision: 2
# Processed by: cddbd v1.5.2PL0 Copyright (c) Steve Scherf et al.
#
# Submitted via: libkcddb 0.31
#
DISCID=7b07ba0a
DTITLE=Bryan White - Between Now And Forever
DYEAR=1900
DGENRE=Unknown
TTITLE0=Sittin' On Go
TTITLE1=Still Life
TTITLE2=Blindhearted
TTITLE3=Nickel In The Well
TTITLE4=I'm Not Supposed To Love You Anymore
TTITLE5=So Much For Pretending
TTITLE6=Between Now And Forever
TTITLE7=A Hundred And One
TTITLE8=On Any Given Night
TTITLE9=That's Another Song
EXTD=
EXTT0=
EXTT1=
EXTT2=
EXTT3=
EXTT4=
EXTT5=
EXTT6=
EXTT7=
EXTT8=
EXTT9=
PLAYORDER=
